<?xml version="1.0" encoding="UTF-8"?>
<svg xmlns="http://www.w3.org/2000/svg" xmlns:xlink="http://www.w3.org/1999/xlink" viewBox="0 0 64 64" width="64px" height="64px">
<defs>
<linearGradient id="linear0" gradientUnits="userSpaceOnUse" x1="32.526001" y1="16.627001" x2="32.526001" y2="56.834" >
<stop offset="0" style="stop-color:rgb(87.450981%,69.803923%,32.549021%);stop-opacity:1;"/>
<stop offset="1" style="stop-color:rgb(90.196079%,67.058825%,100%);stop-opacity:1;"/>
</linearGradient>
<linearGradient id="linear1" gradientUnits="userSpaceOnUse" x1="32" y1="6" x2="32" y2="58" >
<stop offset="0" style="stop-color:rgb(10.196079%,42.745098%,100%);stop-opacity:1;"/>
<stop offset="1" style="stop-color:rgb(78.431374%,13.333334%,100%);stop-opacity:1;"/>
</linearGradient>
</defs>
<g id="surface120268183">
<path style=" stroke:none;fill-rule:nonzero;fill:url(#linear0);" d="M 35.519531 38.890625 L 42.25 38.890625 L 43.304688 32.054688 L 35.519531 32.054688 L 35.519531 28.320312 C 35.519531 25.480469 36.449219 22.960938 39.105469 22.960938 L 43.371094 22.960938 L 43.371094 16.996094 C 42.621094 16.894531 41.035156 16.671875 38.039062 16.671875 C 31.78125 16.671875 28.113281 19.976562 28.113281 27.507812 L 28.113281 32.054688 L 21.679688 32.054688 L 21.679688 38.890625 L 28.113281 38.890625 L 28.113281 56.679688 C 29.386719 56.867188 30.675781 57 32 57 C 33.195312 57 34.367188 56.890625 35.519531 56.734375 Z M 35.519531 38.890625 "/>
<path style="fill:none;stroke-width:2;stroke-linecap:butt;stroke-linejoin:miter;stroke:url(#linear1);stroke-miterlimit:10;" d="M 32 7 C 18.191406 7 7 18.191406 7 32 C 7 45.808594 18.191406 57 32 57 C 45.808594 57 57 45.808594 57 32 C 57 18.191406 45.808594 7 32 7 Z M 32 7 "/>
</g>
</svg>
