<?xml version="1.0" encoding="UTF-8"?>
<svg xmlns="http://www.w3.org/2000/svg" xmlns:xlink="http://www.w3.org/1999/xlink" viewBox="0 0 64 64" width="64px" height="64px">
<defs>
<linearGradient id="linear0" gradientUnits="userSpaceOnUse" x1="32" y1="6" x2="32" y2="58" >
<stop offset="0" style="stop-color:rgb(87.450981%,69.803923%,32.549021%);stop-opacity:1;"/>
<stop offset="1" style="stop-color:rgb(78.431374%,13.333334%,100%);stop-opacity:1;"/>
</linearGradient>
<linearGradient id="linear1" gradientUnits="userSpaceOnUse" x1="21.922001" y1="25.872" x2="22.080999" y2="44.462002" >
<stop offset="0" style="stop-color:rgb(42.745098%,78.039217%,100%);stop-opacity:1;"/>
<stop offset="1" style="stop-color:rgb(90.196079%,67.058825%,100%);stop-opacity:1;"/>
</linearGradient>
<linearGradient id="linear2" gradientUnits="userSpaceOnUse" x1="22.474001" y1="17.966" x2="22.527" y2="24.145" >
<stop offset="0" style="stop-color:rgb(42.745098%,78.039217%,100%);stop-opacity:1;"/>
<stop offset="1" style="stop-color:rgb(90.196079%,67.058825%,100%);stop-opacity:1;"/>
</linearGradient>
<linearGradient id="linear3" gradientUnits="userSpaceOnUse" x1="38.077" y1="25.983" x2="37.922001" y2="44.076" >
<stop offset="0" style="stop-color:rgb(42.745098%,78.039217%,100%);stop-opacity:1;"/>
<stop offset="1" style="stop-color:rgb(90.196079%,67.058825%,100%);stop-opacity:1;"/>
</linearGradient>
</defs>
<g id="surface27847972">
<path style=" stroke:none;fill-rule:nonzero;fill:url(#linear0);" d="M 32 58 C 17.664062 58 6 46.335938 6 32 C 6 17.664062 17.664062 6 32 6 C 46.335938 6 58 17.664062 58 32 C 58 46.335938 46.335938 58 32 58 Z M 32 8 C 18.765625 8 8 18.765625 8 32 C 8 45.234375 18.765625 56 32 56 C 45.234375 56 56 45.234375 56 32 C 56 18.765625 45.234375 8 32 8 Z M 32 8 "/>
<path style=" stroke:none;fill-rule:nonzero;fill:url(#linear1);" d="M 19 26 L 25 26 L 25 44 L 19 44 Z M 19 26 "/>
<path style=" stroke:none;fill-rule:nonzero;fill:url(#linear2);" d="M 26 21 C 26 22.65625 24.433594 24 22.5 24 C 20.566406 24 19 22.65625 19 21 C 19 19.34375 20.566406 18 22.5 18 C 24.433594 18 26 19.34375 26 21 Z M 26 21 "/>
<path style=" stroke:none;fill-rule:nonzero;fill:url(#linear3);" d="M 40 26 L 39.46875 26 C 37.28125 26 35.46875 27.570312 35.082031 29.648438 L 35 29.648438 L 35 26 L 29 26 L 29 44 L 35 44 L 35 33.882812 C 35.007812 33.503906 35.035156 33.152344 35.085938 32.824219 C 35.390625 31.492188 36.578125 30.5 38 30.5 C 39.65625 30.5 41 31.84375 41 33.5 L 41 44 L 47 44 L 47 33 C 47 29.132812 43.867188 26 40 26 Z M 40 26 "/>
</g>
</svg>
